<svg id="Layer_1" enable-background="new 0 0 491.5 491.5" viewBox="0 0 491.5 491.5" xmlns="http://www.w3.org/2000/svg" xmlns:xlink="http://www.w3.org/1999/xlink">
<linearGradient id="SVGID_1_" gradientUnits="userSpaceOnUse" x1="245.7" x2="245.7" y1="70.575" y2="421"><stop offset="0" stop-color="#f704fe"/><stop offset="1" stop-color="#24bce3"/></linearGradient><path d="m266.6 289.4-29.4-29.5-15.6 45zm10.4 6.5-61.6 21.3c-3.8 1.3-7.4-2.3-6.1-6.1l21.3-61.6c.3-.7.6-1.3 1.1-1.8l91.5-91.5v-23.5c0-17-13.8-30.8-30.8-30.8h-175.2v77c0 2.7-2.1 4.8-4.8 4.8h-77v206.5c0 17 13.8 30.8 30.8 30.8h226.2c17 0 30.8-13.8 30.8-30.8v-139.9l-44.2 44.4c-.6.5-1.2 1-2 1.2zm-169.3-187.2-65.4 65.4h65.4zm346.2-12.6-23.5-23.5c-2.7-2.7-7.3-2.7-10 0l-29.6 29.6 33.5 33.5 29.6-29.6c2.8-2.7 2.8-7.3 0-10zm-212 155 33.5 33.5c47.4-47.4 94.7-94.7 142.1-142.1l-33.5-33.5z" fill="url(#SVGID_1_)"/>
</svg>