<svg id="Слой_1" enable-background="new 0 0 300 300" viewBox="0 0 300 300" xmlns="http://www.w3.org/2000/svg">
<g><g><g><path d="m294.993 78.796c-.074-.025-.197-.074-.394-.147-.024 0-.048-.025-.074-.025-4.35-1.573-36.088-12.292-68.833-1.942-9.881 3.122-16.543 9.858-20.994 16.889-5.752 9.096-8.088 19.888-7.521 30.631.639 12.267-.984 36.113-19.199 57.156l-8.556 8.555c-7.67 6.662-31.49 18.88-31.49 18.88-9.195 23.772-30.508 42.382-30.508 42.382-1.256 2.508-2.509 4.966-3.81 7.277-6.516 11.726-13.571 20.355-20.087 19.593 0 0 3.296-13.668 45.873-129.603l23.503-51.355c2.679-2.286 6.095-5.113 8.333-9.809 6.071-12.685 16.102-27.533 30.878-31.565 21.731-5.9 34.169 6.736 35.989 8.727.048.049.098.098.122.147.074.074.098.123.098.123l.098.049.245.098s34.712-6.858 66.327 13.939z" fill="#fff"/></g></g><g><path d="m30.784 37.266c-8.297-4.973-12.801-15.36-12.801-15.36 25.769 5.287 64.542 9.819 81.656 14.693 10.465 2.98 19.982 8.587 27.654 16.303l15.045 15.212 19.031 19.031s-6.733 8.405-8.47 9.948-30.623-30.664-30.623-30.664-13.451-15.176-34.941-19.358-56.551-9.805-56.551-9.805z" fill="#fff"/></g><g><g><path d="m170.453 128.725-18.289 9.637s-7.056 5.261-17.554 8.875c-1.623.565-3.171.959-4.621 1.18-14.529 2.409-21.117-9.514-21.117-9.514l1.376.148c-12.241-2.065-18.462-12.783-18.462-12.783l.639.049c-12.193-1.844-18.608-13.005-18.608-13.005l2.826.566c-12.635-2.483-17.28-13.595-17.626-14.455-9.046-4.081-14.308-13.029-14.652-13.619l-.024-.024c-8.138-4.253-11.161-15.217-11.456-16.471-.098-.049-.173-.098-.271-.147-10.496-6.146-14.798-19.421-14.798-19.421l1.45.762c-10.473-6.025-14.309-17.899-14.309-17.899 27.486 5.654 68.833 10.472 87.074 15.684 8.41 2.385 16.226 6.367 23.061 11.702 2.261 1.745 4.401 3.638 6.415 5.679l46.66 46.831s9.613 8.727 2.286 16.225z" fill="#fff"/></g></g><g><path d="m152.219 201.787c1.922.673 1.393 3.895 1.157 6.073-.631 5.806-5.848 10.001-11.654 9.371 0 0-2.11.789-6.743-1.766-4.634-2.556 14.638-14.589 17.24-13.678z" fill="#fff"/></g><g><path d="m162.114 195.918c.951 1.801 1.393 3.895 1.157 6.073-.279 2.569-1.456 4.823-3.185 6.483l-7.574 2.574 1.114-10.807z" fill="#fff"/></g><g><g><path d="m294.524 78.624c-4.35-1.573-36.088-12.292-68.833-1.942-9.881 3.122-16.543 9.858-20.994 16.889-5.752 9.096-8.088 19.888-7.521 30.631.639 12.267-.984 36.113-19.199 57.156l-8.556 8.555c-7.67 6.662-31.49 18.88-31.49 18.88-9.195 23.772-30.508 42.382-30.508 42.382-1.256 2.508-2.509 4.966-3.81 7.277 6.636-19.077 17.674-50.027 35.965-99.833l23.525-51.33c2.679-2.311 6.098-5.138 8.335-9.833 6.071-12.66 16.102-27.533 30.852-31.54 18.536-5.04 24.24-2.68 25.813-1.475.048.049.098.098.122.147.074.049.149.098.197.172.173.172.245.295.245.295l.37.147c-.002-.001 34.096-6.712 65.487 13.422z" fill="#a1dced"/></g></g><g opacity=".3"><g><path d="m287.889 76.559c-11.826-3.221-36.705-7.941-62.198.123-9.881 3.122-16.543 9.858-20.994 16.889-5.752 9.096-8.088 19.888-7.521 30.631.639 12.267-.984 36.113-19.199 57.156l-8.556 8.555c-15.795 15.257-37.534 19.247-44.933 23.352l3.736-3.737c21.633-25.026 47.442-63.398 46.681-77.952-.665-12.759 2.113-25.591 8.947-36.383 5.284-8.358 13.202-16.372 24.951-20.085 34.809-10.988 68.662-1.917 79.086 1.451z" fill="#2a7bb5"/></g></g><g><g><path d="m291.108 77.665c-.271-.098-1.376-.516-3.219-1.106 1.006.27 1.916.541 2.727.787.173.098.319.196.492.319z" fill="#a1dced"/></g></g><g><path d="m49.789 40.397c-8.297-4.973-12.801-15.36-12.801-15.36 25.769 5.287 45.537 6.688 62.651 11.563 10.465 2.98 19.982 8.587 27.654 16.303l15.045 15.212 19.031 19.031s-6.733 8.405-8.47 9.948-30.623-30.664-30.623-30.664-13.451-15.176-34.941-19.358-37.546-6.675-37.546-6.675z" fill="#ff9691"/></g><g><g><path d="m170.283 128.393-19.42 9.799s-7.492 5.35-18.64 9.024c-1.723.575-3.368.975-4.907 1.2-6.082-3.9-9.162-8.974-9.162-8.974l.39.05c-12.738-2.025-19.445-13.199-19.445-13.199l3 .575c-13.442-2.525-18.377-13.824-18.742-14.699v-.025c-9.605-4.15-15.193-13.224-15.532-13.824l-.025-.025c-8.693-4.35-11.905-15.649-12.19-16.774-.105-.05-.184-.1-.288-.15-11.12-6.225-15.688-19.724-15.688-19.724l1.67.85c-.112-.061-.224-.122-.335-.184-7.792-4.356-3.207-15.885 5.691-14.449 22.83 3.683 48.511 7.094 64.839 10.633 2.401 1.775 4.673 3.7 6.812 5.775l49.547 47.622c-.002 0 10.205 8.874 2.425 16.499z" fill="#ff9691"/></g></g><g><path d="m155.551 83.933c-.634 0-1.267-.244-1.748-.73l-6.867-6.943c-.955-.965-.946-2.522.019-3.477.965-.954 2.522-.946 3.476.019l6.867 6.943c.955.965.946 2.522-.019 3.477-.478.474-1.103.711-1.728.711z" fill="#333"/></g><g><path d="m107.102 117.252c-1.325 0-2.418-1.055-2.456-2.388-.039-1.357 1.03-2.489 2.387-2.527 6.585-.188 11.492-.455 11.507-.456 1.336-.074 2.514.964 2.589 2.321.074 1.356-.965 2.515-2.321 2.589 0 0-4.966.271-11.634.461-.025 0-.049 0-.072 0z" fill="#333"/></g><g><path d="m88.487 94.429c-.037 0-.074-.001-.112-.002-.202-.009-5.038-.231-13.101-1.047-1.351-.137-2.335-1.342-2.198-2.693.136-1.351 1.341-2.335 2.693-2.198 7.912.8 12.778 1.025 12.826 1.027 1.356.061 2.406 1.21 2.346 2.566-.059 1.318-1.147 2.347-2.454 2.347z" fill="#333"/></g><g><path d="m170.461 131.183c-.619 0-1.239-.232-1.717-.699-.972-.948-.99-2.505-.043-3.476 1.427-1.462 2.098-3.011 2.05-4.733-.114-4.13-4.195-7.92-4.236-7.958l-46.741-46.916c-7.859-7.904-17.685-13.697-28.42-16.754-10.309-2.936-28.058-5.749-46.849-8.727-12.107-1.919-24.574-3.895-35.387-5.973 1.967 3.74 5.632 9.18 11.497 12.504 14.956 8.475 48.002 11.598 48.334 11.629 1.352.124 2.347 1.321 2.223 2.673-.125 1.352-1.329 2.347-2.673 2.223-1.399-.129-34.441-3.256-50.308-12.247-11.271-6.388-15.401-18.831-15.571-19.358-.269-.832-.076-1.745.507-2.396.584-.652 1.47-.944 2.326-.769 11.686 2.398 25.99 4.665 39.823 6.857 18.941 3.002 36.832 5.837 47.426 8.855 11.541 3.287 22.108 9.516 30.558 18.014l46.654 46.833c.141.124 5.562 5.113 5.752 11.343.094 3.091-1.065 5.895-3.444 8.333-.483.494-1.122.742-1.761.742z" fill="#333"/></g><g><path d="m77.551 81.564c-.091 0-.182-.005-.274-.015-1.428-.158-35.098-3.952-45.91-10.28-11.163-6.534-15.695-20.2-15.883-20.779-.418-1.291.289-2.674 1.578-3.094 1.292-.42 2.677.286 3.098 1.576.041.124 4.167 12.48 13.689 18.054 9.914 5.802 43.629 9.599 43.969 9.636 1.349.15 2.321 1.365 2.172 2.714-.138 1.258-1.203 2.188-2.439 2.188z" fill="#333"/></g><g><path d="m105.22 106.484c-.003 0-.006 0-.009 0-1.407-.005-34.583-.167-45.298-4.035-11.168-4.033-17.451-15.007-17.713-15.472-.666-1.182-.247-2.677.933-3.345 1.181-.667 2.679-.251 3.349.929.056.098 5.681 9.862 15.101 13.263 9.919 3.581 43.31 3.742 43.646 3.743 1.358.005 2.454 1.109 2.449 2.467-.005 1.355-1.104 2.45-2.458 2.45z" fill="#333"/></g><g><path d="m94.973 117.432c-.001 0-.002 0-.004 0-8.729-.013-15.054-.394-18.8-1.134-14.338-2.83-19.279-15.522-19.482-16.06-.48-1.27.161-2.689 1.432-3.168 1.269-.479 2.683.16 3.165 1.425.168.435 4.24 10.691 15.838 12.98 3.435.678 9.443 1.028 17.855 1.041 1.358.002 2.457 1.104 2.455 2.462-.002 1.356-1.103 2.454-2.459 2.454z" fill="#333"/></g><g><path d="m97.376 129.068c-.793 0-1.541-.009-2.239-.029-15.179-.422-23.121-13.93-23.452-14.505-.676-1.177-.271-2.68.906-3.357 1.175-.676 2.677-.272 3.355.903.135.229 7.004 11.701 19.328 12.043 10.815.301 35.502-2.049 35.75-2.073 1.356-.129 2.553.861 2.682 2.213.13 1.351-.861 2.552-2.212 2.681-.962.095-22.292 2.124-34.118 2.124z" fill="#333"/></g><g><path d="m126.236 151.204c-13.185 0-19.44-10.984-19.514-11.118-.657-1.188-.226-2.684.962-3.341 1.187-.657 2.68-.227 3.338.957.318.563 7.319 12.541 22.794 7.215 9.97-3.43 16.819-8.471 16.887-8.521 1.09-.809 2.629-.583 3.439.506s.585 2.627-.502 3.438c-.301.224-7.493 5.534-18.224 9.227-3.367 1.158-6.425 1.637-9.18 1.637z" fill="#333"/></g><g><path d="m114.36 141.838c-16.172 0-24.611-14.188-24.705-14.349-.681-1.174-.281-2.679.893-3.36 1.175-.681 2.676-.282 3.358.889.374.638 9.028 14.979 25.789 11.305 12.597-2.76 20.515-5.852 20.593-5.883 1.264-.497 2.691.123 3.188 1.386.498 1.263-.122 2.69-1.385 3.188-.334.132-8.329 3.26-21.344 6.112-2.247.492-4.377.712-6.387.712z" fill="#333"/></g><g><path d="m152.219 201.787c1.922.673 1.393 3.895 1.157 6.073-.631 5.806-5.848 10.001-11.654 9.371 0 0-2.11.789-6.743-1.766-4.634-2.556 14.638-14.589 17.24-13.678z" fill="#fff180"/></g><g><path d="m162.114 195.918c.951 1.801 1.393 3.895 1.157 6.073-.279 2.569-1.456 4.823-3.185 6.483l-7.574 2.574 1.114-10.807z" fill="#fff180"/></g><g><path d="m66.746 92.4c-.101 0-.204-.006-.307-.019-6.088-.759-12.22-1.667-18.226-2.701-13.415-2.308-17.597-19.201-17.769-19.919-.315-1.319.498-2.643 1.817-2.959 1.32-.317 2.646.495 2.965 1.814.035.144 3.612 14.463 13.821 16.219 5.931 1.02 11.987 1.918 18.001 2.667 1.347.168 2.303 1.396 2.135 2.743-.155 1.245-1.215 2.155-2.437 2.155z" fill="#333"/></g><g><path d="m152.9 99.552c-.692 0-1.38-.29-1.867-.857-.884-1.03-.766-2.582.264-3.467l.296-.254c2.574-2.206 5.49-4.706 7.431-8.764 6.034-12.611 16.559-28.549 32.43-32.863 24.819-6.747 38.204 9.117 38.76 9.795.862 1.049.711 2.598-.338 3.46-1.049.861-2.595.711-3.456-.334-.504-.603-12.041-14.057-33.677-8.177-14.074 3.826-23.693 18.557-29.284 30.241-2.389 4.994-5.87 7.977-8.667 10.375l-.293.251c-.462.399-1.032.594-1.599.594z" fill="#333"/></g><g><path d="m122.275 216.796c-1.065 0-2.046-.697-2.359-1.771-.38-1.303.369-2.668 1.672-3.048 17.836-5.199 34.683-13.916 46.219-23.915 1.026-.889 2.578-.778 3.468.248.889 1.026.778 2.579-.247 3.468-12.053 10.447-29.572 19.53-48.064 24.92-.229.066-.461.098-.689.098z" fill="#333"/></g><g><path d="m177.979 183.825c-.57 0-1.142-.197-1.607-.599-1.027-.888-1.14-2.44-.251-3.468 17.624-20.378 19.212-43.469 18.591-55.419-.617-11.845 2.117-22.941 7.907-32.087 5.702-9.009 13.219-15.039 22.343-17.923 17.633-5.573 34.838-5.23 47.896-3.391-23.206-7.503-43.458-3.729-43.72-3.678-1.334.261-2.623-.608-2.884-1.94-.261-1.331.605-2.623 1.937-2.885 1.458-.287 36.094-6.793 68.204 14.339 1.05.691 1.409 2.063.832 3.18-.576 1.117-1.905 1.62-3.076 1.164-.333-.129-33.747-12.836-67.707-2.103-7.987 2.525-14.605 7.862-19.67 15.864-5.242 8.282-7.715 18.38-7.152 29.202.661 12.688-1.031 37.21-19.781 58.891-.487.565-1.173.853-1.862.853z" fill="#333"/></g><g><path d="m84.279 280.553c-.345 0-.688-.02-1.032-.06-.699-.081-1.328-.458-1.731-1.034s-.539-1.297-.375-1.981c.135-.564 3.797-15.134 45.941-129.893.469-1.274 1.881-1.927 3.155-1.46 1.275.468 1.928 1.881 1.46 3.155-32.309 87.978-41.939 116.898-44.71 125.755 12.299-5.494 29.061-47.081 37.42-74.407.397-1.298 1.768-2.031 3.07-1.632 1.298.397 2.029 1.771 1.632 3.07-4.061 13.276-25.024 78.487-44.83 78.487z" fill="#333"/></g><g><path d="m142.888 219.752c-.475 0-.953-.026-1.432-.078-1.35-.147-2.325-1.36-2.179-2.709.147-1.35 1.359-2.328 2.709-2.178 2.152.233 4.273-.385 5.962-1.744 1.689-1.358 2.749-3.293 2.983-5.448.176-1.618-.131-3.229-.886-4.659-.634-1.201-.175-2.688 1.026-3.322 1.199-.633 2.687-.176 3.322 1.025 1.215 2.301 1.709 4.89 1.427 7.486-.376 3.461-2.077 6.568-4.789 8.749-2.339 1.879-5.186 2.878-8.143 2.878z" fill="#333"/></g><g><path d="m160.086 210.932c-.646 0-1.292-.253-1.774-.756-.94-.979-.908-2.536.071-3.476 1.37-1.315 2.237-3.082 2.443-4.975.176-1.617-.131-3.228-.887-4.659-.634-1.201-.175-2.688 1.026-3.322 1.202-.636 2.688-.174 3.322 1.026 1.215 2.302 1.709 4.89 1.427 7.486-.33 3.039-1.725 5.877-3.927 7.991-.476.458-1.089.685-1.701.685z" fill="#333"/></g><g><path d="m107.736 252.885c-.67 0-1.337-.272-1.823-.808-.911-1.006-.834-2.561.172-3.472 6.526-5.91 12.512-12.344 16.423-17.652.805-1.093 2.344-1.326 3.438-.521 1.093.805 1.326 2.344.52 3.437-4.097 5.56-10.322 12.259-17.08 18.38-.47.426-1.061.636-1.65.636z" fill="#333"/></g><g><path d="m131.233 224.594c-.418 0-.843-.107-1.231-.332-1.175-.681-1.574-2.186-.893-3.36 4.31-7.431 6.438-12.935 6.459-12.989.486-1.268 1.907-1.901 3.175-1.416 1.268.486 1.902 1.906 1.417 3.173-.091.237-2.275 5.899-6.798 13.698-.457.787-1.281 1.226-2.129 1.226z" fill="#333"/></g><g><path d="m208.998 68.772h-3.975c-1.358 0-2.458-1.101-2.458-2.458s1.101-2.458 2.458-2.458h3.975c1.358 0 2.458 1.101 2.458 2.458s-1.101 2.458-2.458 2.458z" fill="#333"/></g><g><path d="m142.338 70.572c-.634 0-1.267-.244-1.748-.73l-15.045-15.212c-7.346-7.388-16.539-12.807-26.58-15.667-9.659-2.751-26.299-5.388-43.917-8.18-11.058-1.753-22.436-3.556-32.392-5.45 1.999 3.166 5.188 7.304 9.391 9.823 1.164.698 1.542 2.208.844 3.372-.699 1.165-2.207 1.543-3.372.845-8.871-5.318-13.595-16.036-13.792-16.49-.365-.841-.231-1.816.347-2.528s1.502-1.044 2.403-.859c10.956 2.248 24.37 4.374 37.341 6.43 17.768 2.816 34.55 5.476 44.494 8.308 10.849 3.09 20.781 8.945 28.724 16.934l15.049 15.217c.955.965.946 2.522-.019 3.477-.479.474-1.104.71-1.728.71z" fill="#333"/></g></g>
</svg>