<svg id="Layer_1" enable-background="new 0 0 512 512" viewBox="0 0 512 512" xmlns="http://www.w3.org/2000/svg">
<g><path d="m211.568 120.999-116.576-116.575c-9.449-9.45-25.607-2.757-25.607 10.607v241.938c0 3.978 1.58 7.794 4.394 10.607l84.47 84.47-134.348 134.347c-9.449 9.45-2.756 25.607 10.607 25.607h170.847c2.167 0 4.279-.484 6.213-1.365l88.864-193.323z" fill="#ff6b6b"/><path d="m488.099 184.256-70.423-70.423c-5.858-5.858-15.355-5.858-21.213 0l-129.513 129.512-55.382-122.346-141.217 141.217c.745 1.991 1.896 3.826 3.427 5.358l137.79 137.789 191.107-84.471c2.813-2.813 4.393-6.628 4.393-10.607v-100.422h70.423c13.364 0 20.057-16.157 10.608-25.607z" fill="#ff3d7d"/><path d="m211.568 120.999v389.635c1.617-.737 3.113-1.747 4.393-3.028l186.714-186.714c2.073-2.073 2.976-4.152 3.428-5.359z" fill="#ea1c81"/><path d="m477.492 209.863c13.364 0 20.056-16.157 10.607-25.607l-70.423-70.423c-2.929-2.929-6.768-4.393-10.607-4.393v100.424h70.423z" fill="#ea1c81"/><path d="m211.568 510.635c1.617-.737 3.113-1.747 4.393-3.028l186.714-186.714c1.065-1.065 1.952-2.275 2.644-3.581h-193.751z" fill="#d000b1"/></g>
</svg>